<?xml version="1.0" standalone="no"?>
<!DOCTYPE svg PUBLIC "-//W3C//DTD SVG 20010904//EN"
 "http://www.w3.org/TR/2001/REC-SVG-20010904/DTD/svg10.dtd">
<svg version="1.0" xmlns="http://www.w3.org/2000/svg"
 width="326.000000pt" height="326.000000pt" viewBox="0 0 326.000000 326.000000"
 preserveAspectRatio="xMidYMid meet">
<metadata>
Created by potrace 1.11, written by Peter Selinger 2001-2013
</metadata>
<g transform="translate(0.000000,326.000000) scale(0.100000,-0.100000)"
fill="#000000" stroke="none">
<path d="M381 2203 c1 -1157 2 -1188 59 -1407 112 -436 391 -688 854 -773 98
-17 425 -24 546 -11 477 52 801 296 948 713 25 70 58 209 68 280 3 28 9 59 12
70 3 11 7 507 9 1103 l4 1082 -265 0 -266 0 -1 -982 c0 -541 -2 -1005 -4
-1033 -12 -161 -46 -312 -90 -410 -53 -116 -138 -216 -238 -279 -44 -27 -146
-63 -216 -76 -63 -11 -234 -15 -281 -5 -13 2 -42 7 -64 11 -49 7 -158 47 -203
75 -199 123 -311 356 -337 704 -3 39 -6 503 -6 1033 l0 962 -265 0 -265 0 1
-1057z"/>
</g>
</svg>
